<svg xmlns="http://www.w3.org/2000/svg" version="1.1" xmlns:xlink="http://www.w3.org/1999/xlink" xmlns:svgjs="http://svgjs.dev/svgjs" width="1500" height="959" viewBox="0 0 1500 959"><g transform="matrix(1,0,0,1,0.41901358608242845,0.3882591093117185)"><svg viewBox="0 0 386 247" data-background-color="#ffffff" preserveAspectRatio="xMidYMid meet" height="959" width="1500" xmlns="http://www.w3.org/2000/svg" xmlns:xlink="http://www.w3.org/1999/xlink"><g id="tight-bounds" transform="matrix(1,0,0,1,-0.1078261628185544,-0.09999999999999432)"><svg viewBox="0 0 386.2156523256371 247.2" height="247.2" width="386.2156523256371"><g><svg viewBox="0 0 397.49759999999986 254.42108865425013" height="247.2" width="386.2156523256371"><g><rect width="397.49759999999986" height="7.792581915170992" x="0" y="139.81864584308832" fill="#89939e" opacity="1" stroke-width="0" stroke="transparent" fill-opacity="1" class="rect-qz-0" data-fill-palette-color="secondary" rx="1%" id="qz-0" data-palette-color="#89939e"></rect></g><g transform="matrix(1,0,0,1,0.9887999999999693,168.01065685556557)"><svg viewBox="0 0 395.5199999999999 86.41043179868457" height="86.41043179868457" width="395.5199999999999"><g id="textblocktransform"><svg viewBox="0 0 395.5199999999999 86.41043179868457" height="86.41043179868457" width="395.5199999999999" id="textblock"><g><svg viewBox="0 0 395.5199999999999 86.41043179868457" height="86.41043179868457" width="395.5199999999999"><g transform="matrix(1,0,0,1,0,0)"><svg width="395.5199999999999" viewBox="3.75 -37.6 174.84 38.2" height="86.41043179868457" data-palette-color="#000000"><path d="M16.7 0.6L16.7 0.6Q10.65 0.6 7.2-3 3.75-6.6 3.75-13.3L3.75-13.3 3.75-35 8.5-35 8.5-14.05Q8.5-9.05 10.55-6.3 12.6-3.55 16.7-3.55L16.7-3.55Q20.95-3.55 23.05-6.23 25.15-8.9 25.15-14.05L25.15-14.05 25.15-35 29.75-35 29.75-13.5Q29.75-9.1 28.13-5.93 26.5-2.75 23.58-1.07 20.65 0.6 16.7 0.6ZM42 0L37.5 0 37.5-26 41.85-26 41.85-21.65Q43.25-23.75 45.42-25.18 47.6-26.6 50.6-26.6L50.6-26.6Q55-26.6 57.17-23.95 59.35-21.3 59.35-16.95L59.35-16.95 59.35 0 54.85 0 54.85-16.45Q54.85-19.25 53.52-20.95 52.2-22.65 49.85-22.65L49.85-22.65Q47.55-22.65 45.5-21.03 43.45-19.4 42-17.2L42-17.2 42 0ZM76.3 0.6L76.3 0.6Q72.65 0.6 69.65-0.38 66.65-1.35 64.59-2.95L64.59-2.95 67-6.95Q68.8-5.45 71.05-4.5 73.3-3.55 76.3-3.55L76.3-3.55Q79.9-3.55 82-5.05 84.09-6.55 84.09-9.1L84.09-9.1Q84.09-10.55 83.5-11.68 82.9-12.8 81.17-13.88 79.45-14.95 76.09-16.2L76.09-16.2Q72.5-17.6 70.34-19.03 68.2-20.45 67.27-22.28 66.34-24.1 66.34-26.6L66.34-26.6Q66.34-29.1 67.72-31.13 69.09-33.15 71.77-34.38 74.45-35.6 78.25-35.6L78.25-35.6Q81.34-35.6 83.82-34.98 86.3-34.35 88.65-33.2L88.65-33.2 86.9-29.15Q85.2-30.15 82.92-30.83 80.65-31.5 78.15-31.5L78.15-31.5Q74.84-31.5 72.95-30.2 71.05-28.9 71.05-26.85L71.05-26.85Q71.05-25.55 71.59-24.55 72.15-23.55 73.77-22.6 75.4-21.65 78.65-20.45L78.65-20.45Q82.55-19 84.82-17.4 87.09-15.8 88.05-13.93 89-12.05 89-9.65L89-9.65Q89-6.4 87.37-4.1 85.75-1.8 82.87-0.6 80 0.6 76.3 0.6ZM104.59 0.6L104.59 0.6Q100.84 0.6 98.67-1.88 96.49-4.35 96.49-8.95L96.49-8.95 96.49-21.15 91.99-21.15 91.99-25.05 96.59-25.05 97.54-33.25 100.99-33.25 100.99-25.05 108.19-25.05 108.19-21.15 100.99-21.15 100.99-8.6Q100.99-5.7 102.22-4.55 103.44-3.4 105.14-3.4L105.14-3.4Q106.39-3.4 107.52-3.8 108.64-4.2 109.59-4.75L109.59-4.75 110.84-1.15Q109.84-0.55 108.14 0.03 106.44 0.6 104.59 0.6ZM123.59 0.6L123.59 0.6Q121.34 0.6 119.34-0.35 117.34-1.3 116.09-3.43 114.84-5.55 114.84-9.1L114.84-9.1 114.84-26 119.34-26 119.34-9.7Q119.34-6.65 120.64-5.03 121.94-3.4 124.44-3.4L124.44-3.4Q126.49-3.4 128.41-4.23 130.34-5.05 131.84-6.45L131.84-6.45 131.84-26 136.34-26 136.34-6.75Q136.34-4.6 137.27-3.93 138.19-3.25 139.29-3.25L139.29-3.25 138.34 0.25Q133.69 0.25 132.59-3.45L132.59-3.45Q130.84-1.65 128.54-0.53 126.24 0.6 123.59 0.6ZM150.29 0L145.79 0 145.79-21.15 141.79-21.15 141.79-25.05 145.79-25.05 145.79-28.1Q145.79-32.5 148.24-35.05 150.69-37.6 154.64-37.6L154.64-37.6Q156.69-37.6 158.24-37.13 159.79-36.65 161.19-35.95L161.19-35.95 159.84-32.15Q158.79-32.7 157.59-33.15 156.39-33.6 154.94-33.6L154.94-33.6Q152.84-33.6 151.56-32.27 150.29-30.95 150.29-28.4L150.29-28.4 150.29-25.05 157.99-25.05 157.99-21.15 150.29-21.15 150.29 0ZM167.69 0L163.19 0 163.19-21.15 159.19-21.15 159.19-25.05 163.19-25.05 163.19-28.1Q163.19-32.5 165.64-35.05 168.09-37.6 172.04-37.6L172.04-37.6Q174.09-37.6 175.64-37.13 177.19-36.65 178.59-35.95L178.59-35.95 177.24-32.15Q176.19-32.7 174.99-33.15 173.79-33.6 172.34-33.6L172.34-33.6Q170.24-33.6 168.96-32.27 167.69-30.95 167.69-28.4L167.69-28.4 167.69-25.05 175.39-25.05 175.39-21.15 167.69-21.15 167.69 0Z" opacity="1" transform="matrix(1,0,0,1,0,0)" fill="#000000" class="wordmark-text-0" data-fill-palette-color="primary" id="text-0"></path></svg></g></svg></g></svg></g></svg></g><g transform="matrix(1,0,0,1,149.1249527378287,0)"><svg viewBox="0 0 99.24769452434249 119.41921674578207" height="119.41921674578207" width="99.24769452434249"><g><svg xmlns="http://www.w3.org/2000/svg" xmlns:xlink="http://www.w3.org/1999/xlink" version="1.1" x="8" y="0" viewBox="16.1 0.1 62.59999999999999 89.8" enable-background="new 0 0 90 90" xml:space="preserve" height="119.41921674578207" width="83.24769452434249" class="icon-icon-0" data-fill-palette-color="accent" id="icon-0"><path d="M55.9 5.1l8.9 8.9 8.9 8.9H55.9V5.1M53.8 0.1V25h24.9L66.2 12.5 53.8 0.1 53.8 0.1z" fill="#000000" data-fill-palette-color="accent"></path><g fill="#000000" data-fill-palette-color="accent"><path d="M53.8 25V0.1H16.1v89.8h62.5V25H53.8zM74.7 63.1H21.5v-3.8h53.2V63.1zM74.7 50.4H21.5v-3.8h53.2V50.4zM74.7 38.4H21.5v-3.8h53.2V38.4z" fill="#000000" data-fill-palette-color="accent"></path></g></svg></g></svg></g><g><rect width="69.71678930645061" height="7.792581915170992" y="110.62663483061107" x="248.37264726217114" fill="#89939e" data-fill-palette-color="secondary"></rect><rect width="69.71678930645061" height="7.792581915170992" y="110.62663483061107" x="79.40816343137807" fill="#89939e" data-fill-palette-color="secondary"></rect></g></svg></g><defs></defs></svg><rect width="386.2156523256371" height="247.2" fill="none" stroke="none" visibility="hidden"></rect></g></svg></g></svg>